<!--?xml version="1.0" encoding="UTF-8" standalone="no"?-->
<svg xmlns:dc="http://purl.org/dc/elements/1.1/" xmlns:cc="http://creativecommons.org/ns#" xmlns:rdf="http://www.w3.org/1999/02/22-rdf-syntax-ns#" xmlns:svg="http://www.w3.org/2000/svg" xmlns="http://www.w3.org/2000/svg" id="svg8" version="1.1" viewBox="0 0 211.66666 79.375002" height="300" width="800" style="">
  <defs id="defs2"></defs>
  <metadata id="metadata5">
    <rdf:rdf>
      <cc:work rdf:about="">
        <dc:format>image/svg+xml</dc:format>
        <dc:type rdf:resource="http://purl.org/dc/dcmitype/StillImage"></dc:type>
        <dc:title></dc:title>
      </cc:work>
    </rdf:rdf>
  </metadata>
  <g style="display:inline" id="layer6">
    <path id="path884" d="m 54.255714,54.385299 c 2.615894,0.816779 4.387663,2.424924 5.57925,4.57699" style="fill: none; stroke: rgb(187, 187, 187); stroke-width: 0.396875px; stroke-linecap: butt; stroke-linejoin: miter; stroke-miterlimit: 4; stroke-opacity: 1;" class="jxrgOTBq_0"></path>
    <path id="path886" d="m 65.152562,68.152345 4.885793,12.877477" style="display: inline; fill: none; stroke: rgb(187, 187, 187); stroke-width: 0.396875px; stroke-linecap: butt; stroke-linejoin: miter; stroke-miterlimit: 4; stroke-opacity: 1;" class="jxrgOTBq_1"></path>
    <path id="path903" d="m 42.729716,54.385299 c -3.084905,0.832637 -3.691652,1.026313 -4.944487,2.38872" style="fill: none; stroke: rgb(187, 187, 187); stroke-width: 0.396875px; stroke-linecap: round; stroke-linejoin: bevel; stroke-miterlimit: 4; stroke-opacity: 1;" class="jxrgOTBq_2"></path>
    <path id="path881" d="m 41.377458,50.352329 c 0.700281,2.038264 1.476434,4.051 2.00452,6.1472 1.718073,1.067842 3.302159,2.671633 5.178349,3.107007 1.234239,-0.671388 2.218498,-1.030302 5.512435,-4.276312 0.02028,-1.237396 0.336402,-3.161942 0.801806,-5.111529" style="display: inline; fill: none; stroke: rgb(187, 187, 187); stroke-width: 0.396875px; stroke-linecap: round; stroke-linejoin: round; stroke-miterlimit: 4; stroke-opacity: 1;" class="jxrgOTBq_3"></path>
    <path id="path920" d="M 31.87189,59.196149 C 28.163711,56.849793 23.536904,54.149518 23.165077,48.727766 23.53482,42.842695 26.819845,37.993899 30.86963,31.233075 29.701529,29.316841 27.674631,27.973139 27.461943,25.419964 l -2.772225,2.318342" style="fill: none; stroke: rgb(187, 187, 187); stroke-width: 0.396875px; stroke-linecap: round; stroke-linejoin: round; stroke-miterlimit: 4; stroke-opacity: 1;" class="jxrgOTBq_4"></path>
    <path id="path926" d="m 18.676154,32.658185 c -2.979181,5.008013 -7.37393,8.424351 -8.8205902,14.995262 1.6370302,8.14612 6.1252372,15.160718 10.9747552,20.94725" style="fill: none; stroke: rgb(187, 187, 187); stroke-width: 0.396875px; stroke-linecap: round; stroke-linejoin: round; stroke-miterlimit: 4; stroke-opacity: 1;" class="jxrgOTBq_5"></path>
    <path id="path922" d="m 27.65093,26.069611 c 0.4712,-0.359633 0.88666,-0.768032 1.59719,-0.918248 1.04164,-0.0607 2.08327,0.0029 3.1249,0.53587 0.57086,1.05227 0.50152,1.877684 0.72081,2.874825 -0.494,1.137738 -1.36181,1.901667 -2.2242,2.671017" style="display: inline; fill: none; stroke: rgb(187, 187, 187); stroke-width: 0.396875px; stroke-linecap: round; stroke-linejoin: round; stroke-miterlimit: 4; stroke-opacity: 1;" class="jxrgOTBq_6"></path>
  </g>
  <g style="display:inline" id="layer7">
    <g id="g937" style="display:inline;stroke:#bbbbbb;stroke-opacity:1" transform="translate(-0.07102984,0.1403198)">
      <path style="fill: none; stroke: rgb(187, 187, 187); stroke-width: 0.396875px; stroke-linecap: round; stroke-linejoin: round; stroke-miterlimit: 4; stroke-opacity: 1;" d="m 80.981398,54.523064 c 0.690743,-8.041772 1.519805,-16.297481 5.008184,-24.095981 3.637115,7.78001 4.888878,15.560021 6.472844,23.340031" id="path928" class="jxrgOTBq_7"></path>
      <path style="fill: none; stroke: rgb(187, 187, 187); stroke-width: 0.396875px; stroke-linecap: round; stroke-linejoin: round; stroke-miterlimit: 4; stroke-opacity: 1;" d="m 81.973586,44.74293 c 3.047496,-0.556674 5.929307,-0.561066 8.598958,0.141743" id="path930" class="jxrgOTBq_8"></path>
    </g>
    <path id="path932" d="m 95.50641,32.116797 c -0.46597,7.506413 1.30661,17.815581 2.31511,22.347844 -0.44609,-3.510964 -1.98459,-7.687614 1.37016,-8.882442 1.74536,-0.09127 2.18344,1.011064 2.5041,2.220612 -0.21008,2.947584 -0.89463,4.083539 -1.79539,4.393973 -1.83571,1.05793 -2.70641,0.199625 -2.71671,-1.819011" style="display: inline; fill: none; stroke: rgb(187, 187, 187); stroke-width: 0.396875px; stroke-linecap: round; stroke-linejoin: round; stroke-miterlimit: 4; stroke-opacity: 1;" class="jxrgOTBq_9"></path>
    <path id="path975" d="m 104.46468,47.456196 c 0.92768,0.18723 1.85567,0.373634 2.29148,1.913504 0.1739,2.162638 -0.59436,3.014458 -1.86626,3.165552 -1.00968,-0.328915 -1.78995,-0.975488 -1.98437,-2.433222 0.0199,-1.194324 0.53132,-2.081461 1.55915,-2.645834 z" style="display: inline; fill: none; stroke: rgb(187, 187, 187); stroke-width: 0.396875px; stroke-linecap: round; stroke-linejoin: round; stroke-miterlimit: 4; stroke-opacity: 1;" class="jxrgOTBq_10"></path>
    <path id="path977" d="m 109.60067,45.849958 c -0.2463,2.055245 -0.24762,4.110491 0.25986,6.165736 0.18222,0.994991 1.60922,1.450942 2.36235,0.118116 0.89557,-1.15115 0.87923,-3.659627 1.11031,-5.716889 -0.88706,4.870879 2.5473,5.70218 4.25223,8.150113" style="display: inline; fill: none; stroke: rgb(187, 187, 187); stroke-width: 0.396875px; stroke-linecap: round; stroke-linejoin: round; stroke-miterlimit: 4; stroke-opacity: 1;" class="jxrgOTBq_11"></path>
    <path id="path1009" d="m 115.77883,47.199777 c 2.41787,-0.730453 4.68526,0.147551 6.87444,-0.448847" style="fill: none; stroke: rgb(187, 187, 187); stroke-width: 0.396875px; stroke-linecap: round; stroke-linejoin: round; stroke-miterlimit: 4; stroke-opacity: 1;" class="jxrgOTBq_12"></path>
    <path id="path1013" d="m 119.7712,43.160156 c -0.18191,14.254253 3.57682,11.042609 4.58297,10.48884" style="fill: none; stroke: rgb(187, 187, 187); stroke-width: 0.396875px; stroke-linecap: round; stroke-linejoin: round; stroke-miterlimit: 4; stroke-opacity: 1;" class="jxrgOTBq_13"></path>
    <path id="path1015" d="m 144.55227,44.175968 c -4.06937,-1.82732 -7.88245,0.708348 -7.46503,1.937127 0.0467,1.191149 5.74751,1.260727 5.59877,3.708891 -0.92851,2.281923 -3.21778,2.438479 -4.4176,2.22061" style="fill: none; stroke: rgb(187, 187, 187); stroke-width: 0.396875px; stroke-linecap: round; stroke-linejoin: round; stroke-miterlimit: 4; stroke-opacity: 1;" class="jxrgOTBq_14"></path>
    <path id="path1017" d="m 150.43452,45.924107 c -3.39089,-3.609727 -5.54822,-0.559268 -4.89006,1.748139 0.62155,1.57957 2.67998,1.270182 3.89787,3.330916 -0.059,1.393051 -2.75237,2.31241 -4.65383,1.393786" style="fill: none; stroke: rgb(187, 187, 187); stroke-width: 0.396875px; stroke-linecap: butt; stroke-linejoin: miter; stroke-miterlimit: 4; stroke-opacity: 1;" class="jxrgOTBq_15"></path>
    <path id="path1019" d="m 156.78925,45.380767 c -2.59355,-2.180003 -6.40836,-1.067162 -4.74833,1.913503 1.5181,1.076607 3.78128,1.011551 4.37035,2.669458 -0.86921,2.631772 -3.03491,2.733906 -4.63021,2.456844" style="fill: none; stroke: rgb(187, 187, 187); stroke-width: 0.396875px; stroke-linecap: round; stroke-linejoin: round; stroke-miterlimit: 4; stroke-opacity: 1;" class="jxrgOTBq_16"></path>
    <path id="path1021" d="m 160.78162,42.900298 -2.59859,1.181174" style="fill: none; stroke: rgb(187, 187, 187); stroke-width: 0.396875px; stroke-linecap: round; stroke-linejoin: round; stroke-miterlimit: 4; stroke-opacity: 1;" class="jxrgOTBq_17"></path>
    <path id="path1023" d="m 160.07291,45.924107 c -0.0395,2.477488 -0.22028,5.460614 0.16537,7.346913" style="fill: none; stroke: rgb(187, 187, 187); stroke-width: 0.396875px; stroke-linecap: round; stroke-linejoin: round; stroke-miterlimit: 4; stroke-opacity: 1;" class="jxrgOTBq_18"></path>
    <path id="path1025" d="m 166.71112,47.223399 c -1.04077,-2.036033 -2.12974,-3.381268 -3.54352,-0.07087 -0.54828,1.7124 -0.19261,2.848213 0.18898,3.638021 2.76745,1.37513 4.33699,-4.238405 4.27586,-5.882256 -0.69296,5.551525 0.59937,11.05769 -2.26786,16.441964 -0.27926,0.298481 -2.56521,1.075136 -3.44903,-1.441034 1.28514,-6.114479 8.78287,-3.622889 8.90606,-3.638021" style="fill: none; stroke: rgb(187, 187, 187); stroke-width: 0.396875px; stroke-linecap: butt; stroke-linejoin: miter; stroke-miterlimit: 4; stroke-opacity: 1;" class="jxrgOTBq_19"></path>
    <path id="path1027" d="m 173.86905,45.711496 c -0.38106,2.786543 -0.0945,4.771953 -0.14175,7.157923 -0.44219,-9.073212 6.05342,-8.454707 4.20499,-0.661458" style="fill: none; stroke: rgb(187, 187, 187); stroke-width: 0.396875px; stroke-linecap: round; stroke-linejoin: round; stroke-miterlimit: 4; stroke-opacity: 1;" class="jxrgOTBq_20"></path>
    <path id="path1029" d="m 183.31845,47.861235 c 0.37405,0.910947 -2.06721,-5.030192 -2.85845,2.645834 -0.26596,0.270973 0.91888,6.639221 3.26005,-3.496281 -0.21418,3.562511 0.55691,4.645178 1.2048,4.299479" style="fill: none; stroke: rgb(187, 187, 187); stroke-width: 0.396875px; stroke-linecap: round; stroke-linejoin: round; stroke-miterlimit: 4; stroke-opacity: 1;" class="jxrgOTBq_21"></path>
    <path id="path1031" d="m 186.57849,54.664805 c 5.73762,-4.786651 5.38233,-20.189058 4.4176,-19.040549 -3.0937,-0.923838 -3.3284,15.775995 -2.19698,16.111233 1.89757,2.402221 2.76073,0.503704 3.5199,0.543343" style="fill: none; stroke: rgb(187, 187, 187); stroke-width: 0.396875px; stroke-linecap: round; stroke-linejoin: round; stroke-miterlimit: 4; stroke-opacity: 1;" class="jxrgOTBq_22"></path>
    <path id="path1033" d="m 198.19125,39.693944 c 4.54696,-3.564268 6.8602,4.789193 0.42523,5.055433 10.44597,0.91297 2.36066,11.818063 -1.2993,7.346911" style="display: inline; fill: none; stroke: rgb(187, 187, 187); stroke-width: 0.396875px; stroke-linecap: round; stroke-linejoin: round; stroke-miterlimit: 4; stroke-opacity: 1;" class="jxrgOTBq_23"></path>
  </g>
  <g id="layer4">
    <path id="path853" d="M 21.166666,29.671131 C 20.89561,3.0489131 57.734991,-9.7252508 68.177455,23.103794 l 8.031992,58.25558" style="fill: none; stroke: rgb(187, 187, 187); stroke-width: 0.396875px; stroke-linecap: round; stroke-linejoin: round; stroke-miterlimit: 4; stroke-opacity: 1;" class="jxrgOTBq_24"></path>
    <path id="path855" d="m 63.96338,24.838265 c 0.07789,11.601834 1.879295,19.0424 3.31638,29.779293 1.838039,9.010221 -0.312798,10.229358 -1.606399,12.614956 -2.409598,2.979499 -4.819195,3.99777 -7.228793,5.858631 0.679398,-7.383955 1.993099,-14.269036 2.456844,-22.253348 0.105075,-6.346708 -0.231058,-12.344225 -0.94494,-18.993304" style="fill: none; stroke: rgb(187, 187, 187); stroke-width: 0.396875px; stroke-linecap: round; stroke-linejoin: round; stroke-miterlimit: 4; stroke-opacity: 1;" class="jxrgOTBq_25"></path>
    <path id="path857" d="m 39.380396,19.276786 c 0.554641,4.993849 0.594738,10.664003 4.323101,13.205542 0.649637,-0.448865 1.810918,-0.748514 1.960751,-2.196987 1.167732,1.418499 2.383819,2.804761 5.031807,3.236423 0.580262,-0.427031 0.633044,-1.750778 0.590592,-3.236423 0.893195,1.506279 0.764851,3.523328 3.118303,4.299479 l 0.425225,-1.370163 c 1.11079,1.009212 2.54406,1.931429 4.27585,1.984377 0.889571,-0.70108 0.715038,-1.8993 0.850447,-3.354541" style="display: inline; fill: none; stroke: rgb(187, 187, 187); stroke-width: 0.396875px; stroke-linecap: round; stroke-linejoin: round; stroke-miterlimit: 4; stroke-opacity: 1;" class="jxrgOTBq_26"></path>
    <path id="path876" d="m 39.380395,19.276786 c -1.128932,18.099829 -3.22906,36.432745 -0.125182,53.5167 -4.203617,-2.238531 -6.272163,-5.854589 -7.41673,-10.99146 1.170189,-11.815483 1.664298,-21.251911 1.770658,-37.685002" style="fill: none; stroke: rgb(187, 187, 187); stroke-width: 0.396875px; stroke-linecap: round; stroke-linejoin: bevel; stroke-miterlimit: 4; stroke-opacity: 1;" class="jxrgOTBq_27"></path>
    <path id="path924" d="m 21.166666,29.671131 c -1.337925,1.159353 -1.79924,2.075867 -2.490512,2.987055 -0.358154,12.186962 0.948088,24.629461 2.202599,36.56057 0.6334,3.955969 2.245271,7.005947 4.578669,9.387843 C 23.71682,62.26975 22.795703,47.072253 22.681143,29.832286 l 2.008575,-2.09398" style="fill: none; stroke: rgb(187, 187, 187); stroke-width: 0.396875px; stroke-linecap: round; stroke-linejoin: round; stroke-miterlimit: 4; stroke-opacity: 1;" class="jxrgOTBq_28"></path>
  </g>
  <g id="layer5">
    <path id="path879" d="m 37.751821,47.302655 c 1.242756,1.506235 2.691296,2.75524 4.643808,3.374279 1.95427,0.884439 4.36158,1.044012 6.748555,1.236122 2.896289,-0.439708 5.041412,-1.399453 6.781964,-2.639287 2.171267,-0.999551 3.204487,-2.283613 4.744035,-3.441094" style="fill: none; stroke: rgb(187, 187, 187); stroke-width: 0.396875px; stroke-linecap: butt; stroke-linejoin: miter; stroke-miterlimit: 4; stroke-opacity: 1;" class="jxrgOTBq_29"></path>
  </g>
<style data-made-with="vivus-instant">.jxrgOTBq_0{stroke-dasharray:8 10;stroke-dashoffset:9;animation:jxrgOTBq_draw 500ms ease 0ms forwards;}.jxrgOTBq_1{stroke-dasharray:14 16;stroke-dashoffset:15;animation:jxrgOTBq_draw 500ms ease 17ms forwards;}.jxrgOTBq_2{stroke-dasharray:6 8;stroke-dashoffset:7;animation:jxrgOTBq_draw 500ms ease 34ms forwards;}.jxrgOTBq_3{stroke-dasharray:25 27;stroke-dashoffset:26;animation:jxrgOTBq_draw 500ms ease 51ms forwards;}.jxrgOTBq_4{stroke-dasharray:44 46;stroke-dashoffset:45;animation:jxrgOTBq_draw 500ms ease 68ms forwards;}.jxrgOTBq_5{stroke-dasharray:42 44;stroke-dashoffset:43;animation:jxrgOTBq_draw 500ms ease 86ms forwards;}.jxrgOTBq_6{stroke-dasharray:12 14;stroke-dashoffset:13;animation:jxrgOTBq_draw 500ms ease 103ms forwards;}.jxrgOTBq_7{stroke-dasharray:50 52;stroke-dashoffset:51;animation:jxrgOTBq_draw 500ms ease 120ms forwards;}.jxrgOTBq_8{stroke-dasharray:9 11;stroke-dashoffset:10;animation:jxrgOTBq_draw 500ms ease 137ms forwards;}.jxrgOTBq_9{stroke-dasharray:46 48;stroke-dashoffset:47;animation:jxrgOTBq_draw 500ms ease 155ms forwards;}.jxrgOTBq_10{stroke-dasharray:14 16;stroke-dashoffset:15;animation:jxrgOTBq_draw 500ms ease 172ms forwards;}.jxrgOTBq_11{stroke-dasharray:25 27;stroke-dashoffset:26;animation:jxrgOTBq_draw 500ms ease 189ms forwards;}.jxrgOTBq_12{stroke-dasharray:7 9;stroke-dashoffset:8;animation:jxrgOTBq_draw 500ms ease 206ms forwards;}.jxrgOTBq_13{stroke-dasharray:15 17;stroke-dashoffset:16;animation:jxrgOTBq_draw 500ms ease 224ms forwards;}.jxrgOTBq_14{stroke-dasharray:22 24;stroke-dashoffset:23;animation:jxrgOTBq_draw 500ms ease 241ms forwards;}.jxrgOTBq_15{stroke-dasharray:19 21;stroke-dashoffset:20;animation:jxrgOTBq_draw 500ms ease 258ms forwards;}.jxrgOTBq_16{stroke-dasharray:19 21;stroke-dashoffset:20;animation:jxrgOTBq_draw 500ms ease 275ms forwards;}.jxrgOTBq_17{stroke-dasharray:3 5;stroke-dashoffset:4;animation:jxrgOTBq_draw 500ms ease 293ms forwards;}.jxrgOTBq_18{stroke-dasharray:8 10;stroke-dashoffset:9;animation:jxrgOTBq_draw 500ms ease 310ms forwards;}.jxrgOTBq_19{stroke-dasharray:50 52;stroke-dashoffset:51;animation:jxrgOTBq_draw 500ms ease 327ms forwards;}.jxrgOTBq_20{stroke-dasharray:22 24;stroke-dashoffset:23;animation:jxrgOTBq_draw 500ms ease 344ms forwards;}.jxrgOTBq_21{stroke-dasharray:21 23;stroke-dashoffset:22;animation:jxrgOTBq_draw 500ms ease 362ms forwards;}.jxrgOTBq_22{stroke-dasharray:42 44;stroke-dashoffset:43;animation:jxrgOTBq_draw 500ms ease 379ms forwards;}.jxrgOTBq_23{stroke-dasharray:29 31;stroke-dashoffset:30;animation:jxrgOTBq_draw 500ms ease 396ms forwards;}.jxrgOTBq_24{stroke-dasharray:131 133;stroke-dashoffset:132;animation:jxrgOTBq_draw 500ms ease 413ms forwards;}.jxrgOTBq_25{stroke-dasharray:94 96;stroke-dashoffset:95;animation:jxrgOTBq_draw 500ms ease 431ms forwards;}.jxrgOTBq_26{stroke-dasharray:43 45;stroke-dashoffset:44;animation:jxrgOTBq_draw 500ms ease 448ms forwards;}.jxrgOTBq_27{stroke-dasharray:106 108;stroke-dashoffset:107;animation:jxrgOTBq_draw 500ms ease 465ms forwards;}.jxrgOTBq_28{stroke-dasharray:103 105;stroke-dashoffset:104;animation:jxrgOTBq_draw 500ms ease 482ms forwards;}.jxrgOTBq_29{stroke-dasharray:26 28;stroke-dashoffset:27;animation:jxrgOTBq_draw 500ms ease 500ms forwards;}@keyframes jxrgOTBq_draw{100%{stroke-dashoffset:0;}}@keyframes jxrgOTBq_fade{0%{stroke-opacity:1;}92.3076923076923%{stroke-opacity:1;}100%{stroke-opacity:0;}}</style></svg>
