<!--?xml version="1.0" encoding="UTF-8" standalone="no"?-->
<svg xmlns:dc="http://purl.org/dc/elements/1.1/" xmlns:cc="http://creativecommons.org/ns#" xmlns:rdf="http://www.w3.org/1999/02/22-rdf-syntax-ns#" xmlns:svg="http://www.w3.org/2000/svg" xmlns="http://www.w3.org/2000/svg" id="svg8" version="1.1" viewBox="0 0 211.66666 79.375002" height="300" width="800" style="">
  <defs id="defs2"></defs>
  <metadata id="metadata5">
    <rdf:rdf>
      <cc:work rdf:about="">
        <dc:format>image/svg+xml</dc:format>
        <dc:type rdf:resource="http://purl.org/dc/dcmitype/StillImage"></dc:type>
        <dc:title></dc:title>
      </cc:work>
    </rdf:rdf>
  </metadata>
  <g style="display:inline" id="layer10">
    <path id="path1763" d="m 160.68713,61.373884 c -5.3063,1.334045 -9.86688,3.525664 -13.91425,6.307476 0.007,4.012385 1.12779,4.3147 2.03162,5.338914 3.37088,1.191142 6.4832,1.220681 9.5439,1.181176" style="fill: none; stroke: rgb(187, 187, 187); stroke-width: 0.396875px; stroke-linecap: round; stroke-linejoin: round; stroke-miterlimit: 4; stroke-opacity: 1;" class="EWKuhhFN_0"></path>
    <path id="path1765" d="m 172.92411,67.610489 c -3.49943,1.095978 -6.85286,1.813733 -10.89044,4.535715 -0.15764,1.138743 0.37639,3.119644 2.24423,4.91369 5.84393,1.848735 10.75428,0.975256 15.49702,0.519719 5.10226,-1.206479 10.99323,-3.273196 14.41035,-7.205173 3.1812,-5.895775 1.96648,-8.925415 2.26785,-14.126858" style="fill: none; stroke: rgb(187, 187, 187); stroke-width: 0.396875px; stroke-linecap: round; stroke-linejoin: round; stroke-miterlimit: 4; stroke-opacity: 1;" class="EWKuhhFN_1"></path>
    <path id="path1767" d="m 194.32701,54.570312 c 3.95628,2.830897 7.75651,6.598091 11.88262,8.409969 0.14669,-2.306552 0.63306,-4.386656 1.53553,-6.189358 -3.26308,-5.382529 -6.53345,-10.766136 -11.4574,-16.394719" style="fill: none; stroke: rgb(187, 187, 187); stroke-width: 0.396875px; stroke-linecap: round; stroke-linejoin: round; stroke-miterlimit: 4; stroke-opacity: 1;" class="EWKuhhFN_2"></path>
    <path id="path1769" d="m 207.50893,57.995721 c 4.69546,3.727592 0.52955,5.71651 -1.11031,4.370351" style="fill: none; stroke: rgb(187, 187, 187); stroke-width: 0.396875px; stroke-linecap: round; stroke-linejoin: round; stroke-miterlimit: 4; stroke-opacity: 1;" class="EWKuhhFN_3"></path>
    <path id="path1771" d="m 162.17541,73.351003 c -11.0661,1.366981 -0.80049,7.52875 2.10249,3.708889" style="fill: none; stroke: rgb(187, 187, 187); stroke-width: 0.396875px; stroke-linecap: round; stroke-linejoin: round; stroke-miterlimit: 4; stroke-opacity: 1;" class="EWKuhhFN_4"></path>
    <path id="path1773" d="m 146.70201,68.177454 c -6.01164,-1.33667 -3.44747,9.528574 2.10249,4.84282" style="fill: none; stroke: rgb(187, 187, 187); stroke-width: 0.396875px; stroke-linecap: round; stroke-linejoin: round; stroke-miterlimit: 4; stroke-opacity: 1;" class="EWKuhhFN_5"></path>
  </g>
  <g id="layer8">
    <path id="path1666" d="M 8.0849032,80.978617 C 8.1209254,59.339274 7.5499338,36.78941 6.8821902,14.094418 l 6.5481028,-0.467722 c 1.160327,23.105861 2.302321,46.321718 3.808591,67.351921" style="fill: none; stroke: rgb(187, 187, 187); stroke-width: 0.396875px; stroke-linecap: round; stroke-linejoin: round; stroke-miterlimit: 4; stroke-opacity: 1;" class="EWKuhhFN_6"></path>
    <path id="path1668" d="m 8.3772291,13.977488 -0.1586912,-2.221679 3.0067821,-0.06682 0.526186,2.021225" style="fill: none; stroke: rgb(187, 187, 187); stroke-width: 0.396875px; stroke-linecap: round; stroke-linejoin: round; stroke-miterlimit: 4; stroke-opacity: 1;" class="EWKuhhFN_7"></path>
    <path id="path1670" d="m 13.430293,13.626696 c 11.756861,9.743779 24.62593,7.253266 37.217283,7.817634 15.655082,-0.04753 29.50911,-10.18413 46.237627,-12.0939464 9.858927,-1.4823476 18.632337,1.5324854 27.261487,5.1449384 6.43233,27.827122 -1.31885,45.478201 4.87767,66.817382" style="fill: none; stroke: rgb(187, 187, 187); stroke-width: 0.396875px; stroke-linecap: round; stroke-linejoin: round; stroke-miterlimit: 4; stroke-opacity: 1;" class="EWKuhhFN_8"></path>
  </g>
  <g id="layer9">
    <path id="path1673" d="m 27.356027,35.010045 c -4.655211,-0.818437 -7.473284,4.012316 -5.250325,4.145924 4.17682,0.245275 5.961127,0.852919 2.86435,2.634025 -1.168725,0.56353 -2.465789,1.668451 -3.708892,1.866255" style="fill: none; stroke: rgb(187, 187, 187); stroke-width: 0.396875px; stroke-linecap: round; stroke-linejoin: round; stroke-miterlimit: 4; stroke-opacity: 1;" class="EWKuhhFN_9"></path>
    <path id="path1675" d="m 33.734375,35.057291 c -2.768951,-0.966033 -8.318645,3.255427 -5.126303,3.378162 1.934828,0.195748 4.773862,-0.991408 5.740514,0.685081 -0.02921,2.261603 -2.665517,2.365612 -4.346726,3.260045" style="fill: none; stroke: rgb(187, 187, 187); stroke-width: 0.396875px; stroke-linecap: round; stroke-linejoin: round; stroke-miterlimit: 4; stroke-opacity: 1;" class="EWKuhhFN_10"></path>
    <path id="path1677" d="m 42.427826,32.789434 c -4.277391,0.878828 -6.410725,2.921402 -5.433406,3.307291 8.086865,0.769289 6.007354,2.349428 5.953124,2.55134 -1.838321,2.703416 -3.859661,2.295504 -5.811385,3.071056" style="fill: none; stroke: rgb(187, 187, 187); stroke-width: 0.370417px; stroke-linecap: round; stroke-linejoin: round; stroke-miterlimit: 4; stroke-opacity: 1;" class="EWKuhhFN_11"></path>
    <path id="path1679" d="m 46.396576,31.466517 -1.842632,0.755952" style="fill: none; stroke: rgb(187, 187, 187); stroke-width: 0.396875px; stroke-linecap: round; stroke-linejoin: round; stroke-opacity: 1; stroke-miterlimit: 4;" class="EWKuhhFN_12"></path>
    <path id="path1681" d="m 46.113094,34.395833 0.94494,6.425594" style="fill: none; stroke: rgb(187, 187, 187); stroke-width: 0.396875px; stroke-linecap: round; stroke-linejoin: round; stroke-opacity: 1; stroke-miterlimit: 4;" class="EWKuhhFN_13"></path>
    <path id="path1683" d="m 54.239583,33.923363 c -1.094185,-0.783192 -1.578679,-3.507206 -3.874257,-1.086683 -1.472959,1.68036 -1.53202,2.784688 -1.322917,3.779764 1.981562,2.408252 3.631854,-0.201563 3.874257,-0.897694 l 1.086681,-5.291667 c -0.615103,4.624395 1.472591,8.191174 -1.889879,13.890625 -2.17169,1.793997 -3.938729,-0.279231 -2.196988,-3.378162 4.072279,-4.184845 7.503128,-1.847135 7.961123,-1.2048" style="fill: none; stroke: rgb(187, 187, 187); stroke-width: 0.396875px; stroke-linecap: butt; stroke-linejoin: miter; stroke-miterlimit: 4; stroke-opacity: 1;" class="EWKuhhFN_14"></path>
    <path id="path1685" d="m 60.003718,30.427083 c 0.408151,2.549883 0.815298,5.367723 0.708706,8.031993 0.791959,-2.92467 -0.131475,-6.20337 3.354539,-7.724887 2.00151,0.340139 1.47756,8.313757 1.133929,7.819383" style="fill: none; stroke: rgb(187, 187, 187); stroke-width: 0.396875px; stroke-linecap: round; stroke-linejoin: round; stroke-miterlimit: 4; stroke-opacity: 1;" class="EWKuhhFN_15"></path>
    <path id="path1687" d="m 72.287947,32.505951 c -3.992835,-5.014698 -4.203294,4.88038 -2.929316,5.386163 2.134721,1.682581 3.804229,-4.400637 4.535712,-7.370538 -1.383379,5.78101 0.367706,7.458943 1.228424,7.748514" style="fill: none; stroke: rgb(187, 187, 187); stroke-width: 0.396875px; stroke-linecap: round; stroke-linejoin: round; stroke-miterlimit: 4; stroke-opacity: 1;" class="EWKuhhFN_16"></path>
    <path id="path1689" d="m 78.666294,38.553572 c 4.701931,-9.002 7.967031,-16.359551 5.693264,-18.402716 -5.028883,4.921082 -5.446999,19.666581 0.519719,17.008929" style="fill: none; stroke: rgb(187, 187, 187); stroke-width: 0.396875px; stroke-linecap: round; stroke-linejoin: round; stroke-miterlimit: 4; stroke-opacity: 1;" class="EWKuhhFN_17"></path>
    <path id="path1691" d="m 45.309895,53.200149 c 0.326915,4.224647 0.728463,8.434367 1.984375,12.473214 -1.911292,-5.338687 3.201574,-10.717912 4.535715,0.897692" style="fill: none; stroke: rgb(187, 187, 187); stroke-width: 0.396875px; stroke-linecap: round; stroke-linejoin: round; stroke-miterlimit: 4; stroke-opacity: 1;" class="EWKuhhFN_18"></path>
    <path id="path1693" d="m 54.192336,56.554687 c -0.903981,-0.225493 -1.424355,0.623117 -2.031622,1.228423" style="fill: none; stroke: rgb(187, 187, 187); stroke-width: 0.396875px; stroke-linecap: round; stroke-linejoin: round; stroke-miterlimit: 4; stroke-opacity: 1;" class="EWKuhhFN_19"></path>
    <path id="path1695" d="m 54.192336,59.247767 0.897694,4.866444" style="fill: none; stroke: rgb(187, 187, 187); stroke-width: 0.396875px; stroke-linecap: round; stroke-linejoin: round; stroke-opacity: 1; stroke-miterlimit: 4;" class="EWKuhhFN_20"></path>
    <path id="path1697" d="m 60.428943,57.310638 c -3.597019,-0.70467 -4.275433,1.537339 -2.787575,2.173365 1.679136,0.0072 2.963607,0.326038 3.449034,1.27567 -0.590975,1.872525 -2.706376,2.793336 -3.307292,2.69308" style="fill: none; stroke: rgb(187, 187, 187); stroke-width: 0.396875px; stroke-linecap: round; stroke-linejoin: round; stroke-miterlimit: 4; stroke-opacity: 1;" class="EWKuhhFN_21"></path>
    <path id="path1699" d="m 62.507812,58.586308 c 0.474211,-0.476455 1.659233,-0.972655 4.393972,-1.511903" style="fill: none; stroke: rgb(187, 187, 187); stroke-width: 0.396875px; stroke-linecap: round; stroke-linejoin: round; stroke-miterlimit: 4; stroke-opacity: 1;" class="EWKuhhFN_22"></path>
    <path id="path1701" d="m 64.539433,55.137277 c 0.592147,2.205161 -0.730171,7.169405 1.842635,6.520087" style="fill: none; stroke: rgb(187, 187, 187); stroke-width: 0.396875px; stroke-linecap: round; stroke-linejoin: round; stroke-miterlimit: 4; stroke-opacity: 1;" class="EWKuhhFN_23"></path>
    <path id="path1703" d="m 68.980653,57.405134 c -0.250963,-0.06209 -1.402851,2.535845 0.94494,3.307292 0.446466,0.576636 2.544874,-0.493454 2.504095,-2.645834 -0.686778,-0.760537 -1.294665,-1.613112 -3.449035,-0.661458 z" style="fill: none; stroke: rgb(187, 187, 187); stroke-width: 0.396875px; stroke-linecap: round; stroke-linejoin: round; stroke-miterlimit: 4; stroke-opacity: 1;" class="EWKuhhFN_24"></path>
    <path id="path1705" d="m 75.831472,55.515253 1.110305,5.551524 c -0.747524,-5.077908 1.536144,-8.000802 5.031809,-5.457031" style="fill: none; stroke: rgb(187, 187, 187); stroke-width: 0.396875px; stroke-linecap: round; stroke-linejoin: round; stroke-miterlimit: 4; stroke-opacity: 1;" class="EWKuhhFN_25"></path>
    <path id="path1707" d="m 84.052454,55.326263 3.000185,5.17355" style="fill: none; stroke: rgb(187, 187, 187); stroke-width: 0.396875px; stroke-linecap: round; stroke-linejoin: round; stroke-miterlimit: 4; stroke-opacity: 1;" class="EWKuhhFN_26"></path>
    <path id="path1709" d="m 90.714284,54.475819 c -3.485612,4.556311 -5.170283,9.931232 -7.370535,15.071798" style="fill: none; stroke: rgb(187, 187, 187); stroke-width: 0.396875px; stroke-linecap: round; stroke-linejoin: round; stroke-miterlimit: 4; stroke-opacity: 1;" class="EWKuhhFN_27"></path>
  </g>
  <g id="layer12">
    <path id="path1742" d="m 173.8218,34.206844 c -2.09046,6.973882 -0.79891,12.176232 -0.42523,17.859374 1.1751,6.289188 7.87513,2.710083 8.45722,2.078871 3.08234,-1.131602 4.13444,-9.516575 6.04762,-15.969495" style="fill: none; stroke: rgb(187, 187, 187); stroke-width: 0.396875px; stroke-linecap: round; stroke-linejoin: round; stroke-miterlimit: 4; stroke-opacity: 1;" class="EWKuhhFN_28"></path>
    <path id="path1744" d="m 173.82181,34.206844 c -4.05334,0.693749 -4.24494,2.275126 -1.18239,4.543186 -4.2853,1.820019 -3.83996,3.48612 -0.26511,4.991733 -6.24688,3.015286 -0.54414,4.835613 0.27132,5.071202 -5.90493,2.47438 -1.97104,3.835528 0.71207,4.018829 -3.46852,3.873733 -0.40001,5.560977 3.07359,2.95667 2.4458,3.033605 4.59381,2.589752 4.87767,-0.968852 3.61358,2.670657 4.08462,-0.871531 2.88986,-2.973375 1.3214,0.210334 5.63521,0.840652 1.21941,-3.441095 1.90745,-0.39888 5.67676,0.05151 0.80181,-3.441095 -0.25214,0.57759 3.53216,-0.766391 1.20271,-3.674956 3.47837,0.287536 2.97152,-2.890251 0.47866,-3.113497" style="display: inline; fill: none; stroke: rgb(187, 187, 187); stroke-width: 0.396875px; stroke-linecap: butt; stroke-linejoin: miter; stroke-miterlimit: 4; stroke-opacity: 1;" class="EWKuhhFN_29"></path>
    <path id="path1761" d="m 166.14416,29.127791 c -5.02019,-0.764201 -9.86305,-1.173754 -15.1663,-2.504093 -1.5478,2.060521 -2.01882,4.589212 -2.12611,7.276041 4.67424,4.738384 10.16713,5.520272 14.43396,7.157924 -2.68468,13.028668 -2.89805,17.710294 -2.43322,21.568267" style="fill: none; stroke: rgb(187, 187, 187); stroke-width: 0.396875px; stroke-linecap: round; stroke-linejoin: round; stroke-miterlimit: 4; stroke-opacity: 1;" class="EWKuhhFN_30"></path>
    <path id="path1775" d="m 150.52902,26.789062 c -6.21214,-8.05002 -11.75353,5.527812 -1.65365,5.835007" style="fill: none; stroke: rgb(187, 187, 187); stroke-width: 0.396875px; stroke-linecap: round; stroke-linejoin: round; stroke-miterlimit: 4; stroke-opacity: 1;" class="EWKuhhFN_31"></path>
    <path id="path1777" d="m 144.22154,31.01767 -0.61421,2.55134 2.3151,0.54334 0.0945,-2.007997" style="fill: none; stroke: rgb(187, 187, 187); stroke-width: 0.396875px; stroke-linecap: round; stroke-linejoin: round; stroke-opacity: 1; stroke-miterlimit: 4;" class="EWKuhhFN_32"></path>
    <path id="path1779" d="m 145.66257,24.214099 1.27567,-3.071056 2.36235,0.708705 -0.82682,2.952939" style="fill: none; stroke: rgb(187, 187, 187); stroke-width: 0.396875px; stroke-linecap: round; stroke-linejoin: round; stroke-opacity: 1; stroke-miterlimit: 4;" class="EWKuhhFN_33"></path>
    <path id="path1781" d="m 150.85975,22.607701 c -1.27079,-1.002898 -3.74827,-1.291419 -5.66965,-2.14974 -0.52633,-2.808238 0.79327,-8.95577 3.49628,-13.3236607 1.0985,-0.185609 3.15603,-0.390858 6.61459,1.0158111 -0.96502,5.3209906 -2.32601,9.3636116 -4.44122,14.4575896 z" style="fill: none; stroke: rgb(187, 187, 187); stroke-width: 0.396875px; stroke-linecap: round; stroke-linejoin: round; stroke-miterlimit: 4; stroke-opacity: 1;" class="EWKuhhFN_34"></path>
  </g>
  <g id="layer13">
    <path id="path1784" d="m 135.80633,40.487282 0.66817,6.68174" style="fill: none; stroke: rgb(187, 187, 187); stroke-width: 0.396875px; stroke-linecap: round; stroke-linejoin: round; stroke-opacity: 1; stroke-miterlimit: 4;" class="EWKuhhFN_35"></path>
    <path id="path1786" d="m 135.80633,40.487282 c 1.84866,-0.565201 3.94046,0.433488 0.36749,2.973374 4.73172,-1.403885 1.7487,3.523978 0.30068,3.708366" style="fill: none; stroke: rgb(187, 187, 187); stroke-width: 0.396875px; stroke-linecap: round; stroke-linejoin: round; stroke-miterlimit: 4; stroke-opacity: 1;" class="EWKuhhFN_36"></path>
    <path id="path1788" d="m 141.28535,43.510768 c -2.43056,-1.170547 -1.94979,2.494302 -1.7499,2.543361 0.95998,1.979442 1.81804,-0.789051 2.41808,-2.768868 -0.32502,1.547708 -0.58989,3.051893 0.25891,3.750125" style="fill: none; stroke: rgb(187, 187, 187); stroke-width: 0.396875px; stroke-linecap: round; stroke-linejoin: round; stroke-miterlimit: 4; stroke-opacity: 1;" class="EWKuhhFN_37"></path>
    <path id="path1790" d="m 143.69913,39.393148 c -0.58083,2.522162 -0.65942,5.100129 -0.53454,7.700703 0.19172,-1.630097 -0.0261,-3.865491 1.23351,-3.463706 0.97248,1.302482 0.36135,2.042597 0.0501,2.555767 -0.71152,0.776002 -1.08999,0.02271 -1.14163,-1.046469" style="fill: none; stroke: rgb(187, 187, 187); stroke-width: 0.396875px; stroke-linecap: round; stroke-linejoin: round; stroke-miterlimit: 4; stroke-opacity: 1;" class="EWKuhhFN_38"></path>
    <path id="path1792" d="m 147.45659,43.986005 c -0.66565,0.02016 -0.94667,0.80107 -0.93442,1.629513 0.34033,1.181573 1.06975,0.701103 1.29542,0.11043 0.32875,-1.027476 -0.10559,-1.634796 -0.361,-1.739943 z" style="fill: none; stroke: rgb(187, 187, 187); stroke-width: 0.396875px; stroke-linecap: round; stroke-linejoin: round; stroke-miterlimit: 4; stroke-opacity: 1;" class="EWKuhhFN_39"></path>
    <path id="path1794" d="m 149.45378,43.769687 c -1.12362,0.21226 -0.80689,1.543201 -0.70158,2.204974 0.72848,1.302271 1.38029,0.431259 1.70307,-0.312072 0.22262,-1.400908 -0.7247,-1.938631 -0.95973,-1.859493" style="fill: none; stroke: rgb(187, 187, 187); stroke-width: 0.396875px; stroke-linecap: round; stroke-linejoin: round; stroke-miterlimit: 4; stroke-opacity: 1;" class="EWKuhhFN_40"></path>
    <path id="path1796" d="m 152.94498,42.525214 2.6727,0.534538 -2.00452,4.476765 z" style="fill: rgb(187, 187, 187); stroke: rgb(187, 187, 187); stroke-width: 0.423333px; stroke-linecap: round; stroke-linejoin: round; stroke-opacity: 1; fill-opacity: 1; stroke-miterlimit: 4;" class="EWKuhhFN_41"></path>
    <path id="path1798" d="m 153.34589,50.175802 c -0.40416,-0.09165 -0.45604,-0.310209 -0.43061,-0.699902 0.14004,-0.06154 0.51076,-0.182128 0.56424,-0.0017 0.36074,0.567626 -0.003,0.538552 -0.13363,0.701582" style="fill: rgb(187, 187, 187); fill-opacity: 1; stroke: rgb(187, 187, 187); stroke-width: 0.396875px; stroke-linecap: round; stroke-linejoin: round; stroke-miterlimit: 4; stroke-opacity: 1;" class="EWKuhhFN_42"></path>
  </g>
  <g id="layer11">
    <path id="path1737" d="m 178.46922,1.5995674 c -10.92886,3.3550828 -12.8784,13.4698866 -12.6953,25.1901536 1.83193,10.728817 2.7433,9.306328 4.00905,12.561668 -0.40139,-13.027712 3.86088,-22.785032 8.26243,-32.3315074 0.0725,4.0063404 -0.40375,8.0126814 0.82473,12.0190224 0.90227,-0.539186 0.13359,0.258394 3.27405,-2.071339 -0.21196,0.90527 0.41826,1.690228 1.06908,2.472243 1.31573,-0.03092 2.40678,-0.398873 3.4745,-0.801808 0.76975,0.932039 0.96144,2.02173 3.00679,2.605877 1.8323,-0.01201 3.00609,0.600638 4.54358,1.002261 3.10038,9.314001 -4.14137,17.256202 -7.14946,23.386083 6.05066,-1.892525 10.22241,-3.847393 14.7261,-11.500695 2.10358,-7.054962 2.4901,-14.355925 -0.20045,-22.517458 -2.36398,-4.7952659 -4.96162,-7.09345 -9.44614,-8.3960618 -3.74332,-2.1227399 -9.50551,-2.0121233 -13.69896,-1.6184388 z" style="fill: none; stroke: rgb(187, 187, 187); stroke-width: 0.396875px; stroke-linecap: round; stroke-linejoin: round; stroke-miterlimit: 4; stroke-opacity: 1;" class="EWKuhhFN_43"></path>
    <path id="path1739" d="m 170.27827,30.663319 c 2.65901,3.599108 5.93128,4.669385 10.48884,5.953125 5.53533,1.529783 6.93519,1.356729 10.39435,2.031621" style="fill: none; stroke: rgb(187, 187, 187); stroke-width: 0.396875px; stroke-linecap: round; stroke-linejoin: round; stroke-miterlimit: 4; stroke-opacity: 1;" class="EWKuhhFN_44"></path>
  </g>
<style data-made-with="vivus-instant">.EWKuhhFN_0{stroke-dasharray:31 33;stroke-dashoffset:32;animation:EWKuhhFN_draw 500ms ease 0ms forwards;}.EWKuhhFN_1{stroke-dasharray:64 66;stroke-dashoffset:65;animation:EWKuhhFN_draw 500ms ease 11ms forwards;}.EWKuhhFN_2{stroke-dasharray:42 44;stroke-dashoffset:43;animation:EWKuhhFN_draw 500ms ease 22ms forwards;}.EWKuhhFN_3{stroke-dasharray:9 11;stroke-dashoffset:10;animation:EWKuhhFN_draw 500ms ease 34ms forwards;}.EWKuhhFN_4{stroke-dasharray:15 17;stroke-dashoffset:16;animation:EWKuhhFN_draw 500ms ease 45ms forwards;}.EWKuhhFN_5{stroke-dasharray:14 16;stroke-dashoffset:15;animation:EWKuhhFN_draw 500ms ease 56ms forwards;}.EWKuhhFN_6{stroke-dasharray:141 143;stroke-dashoffset:142;animation:EWKuhhFN_draw 500ms ease 68ms forwards;}.EWKuhhFN_7{stroke-dasharray:8 10;stroke-dashoffset:9;animation:EWKuhhFN_draw 500ms ease 79ms forwards;}.EWKuhhFN_8{stroke-dasharray:183 185;stroke-dashoffset:184;animation:EWKuhhFN_draw 500ms ease 90ms forwards;}.EWKuhhFN_9{stroke-dasharray:21 23;stroke-dashoffset:22;animation:EWKuhhFN_draw 500ms ease 102ms forwards;}.EWKuhhFN_10{stroke-dasharray:21 23;stroke-dashoffset:22;animation:EWKuhhFN_draw 500ms ease 113ms forwards;}.EWKuhhFN_11{stroke-dasharray:22 24;stroke-dashoffset:23;animation:EWKuhhFN_draw 500ms ease 125ms forwards;}.EWKuhhFN_12{stroke-dasharray:2 4;stroke-dashoffset:3;animation:EWKuhhFN_draw 500ms ease 136ms forwards;}.EWKuhhFN_13{stroke-dasharray:7 9;stroke-dashoffset:8;animation:EWKuhhFN_draw 500ms ease 147ms forwards;}.EWKuhhFN_14{stroke-dasharray:50 52;stroke-dashoffset:51;animation:EWKuhhFN_draw 500ms ease 159ms forwards;}.EWKuhhFN_15{stroke-dasharray:26 28;stroke-dashoffset:27;animation:EWKuhhFN_draw 500ms ease 170ms forwards;}.EWKuhhFN_16{stroke-dasharray:29 31;stroke-dashoffset:30;animation:EWKuhhFN_draw 500ms ease 181ms forwards;}.EWKuhhFN_17{stroke-dasharray:41 43;stroke-dashoffset:42;animation:EWKuhhFN_draw 500ms ease 193ms forwards;}.EWKuhhFN_18{stroke-dasharray:28 30;stroke-dashoffset:29;animation:EWKuhhFN_draw 500ms ease 204ms forwards;}.EWKuhhFN_19{stroke-dasharray:3 5;stroke-dashoffset:4;animation:EWKuhhFN_draw 500ms ease 215ms forwards;}.EWKuhhFN_20{stroke-dasharray:5 7;stroke-dashoffset:6;animation:EWKuhhFN_draw 500ms ease 227ms forwards;}.EWKuhhFN_21{stroke-dasharray:14 16;stroke-dashoffset:15;animation:EWKuhhFN_draw 500ms ease 238ms forwards;}.EWKuhhFN_22{stroke-dasharray:5 7;stroke-dashoffset:6;animation:EWKuhhFN_draw 500ms ease 250ms forwards;}.EWKuhhFN_23{stroke-dasharray:8 10;stroke-dashoffset:9;animation:EWKuhhFN_draw 500ms ease 261ms forwards;}.EWKuhhFN_24{stroke-dasharray:13 15;stroke-dashoffset:14;animation:EWKuhhFN_draw 500ms ease 272ms forwards;}.EWKuhhFN_25{stroke-dasharray:17 19;stroke-dashoffset:18;animation:EWKuhhFN_draw 500ms ease 284ms forwards;}.EWKuhhFN_26{stroke-dasharray:6 8;stroke-dashoffset:7;animation:EWKuhhFN_draw 500ms ease 295ms forwards;}.EWKuhhFN_27{stroke-dasharray:17 19;stroke-dashoffset:18;animation:EWKuhhFN_draw 500ms ease 306ms forwards;}.EWKuhhFN_28{stroke-dasharray:47 49;stroke-dashoffset:48;animation:EWKuhhFN_draw 500ms ease 318ms forwards;}.EWKuhhFN_29{stroke-dasharray:82 84;stroke-dashoffset:83;animation:EWKuhhFN_draw 500ms ease 329ms forwards;}.EWKuhhFN_30{stroke-dasharray:62 64;stroke-dashoffset:63;animation:EWKuhhFN_draw 500ms ease 340ms forwards;}.EWKuhhFN_31{stroke-dasharray:19 21;stroke-dashoffset:20;animation:EWKuhhFN_draw 500ms ease 352ms forwards;}.EWKuhhFN_32{stroke-dasharray:8 10;stroke-dashoffset:9;animation:EWKuhhFN_draw 500ms ease 363ms forwards;}.EWKuhhFN_33{stroke-dasharray:9 11;stroke-dashoffset:10;animation:EWKuhhFN_draw 500ms ease 375ms forwards;}.EWKuhhFN_34{stroke-dasharray:43 45;stroke-dashoffset:44;animation:EWKuhhFN_draw 500ms ease 386ms forwards;}.EWKuhhFN_35{stroke-dasharray:7 9;stroke-dashoffset:8;animation:EWKuhhFN_draw 500ms ease 397ms forwards;}.EWKuhhFN_36{stroke-dasharray:13 15;stroke-dashoffset:14;animation:EWKuhhFN_draw 500ms ease 409ms forwards;}.EWKuhhFN_37{stroke-dasharray:14 16;stroke-dashoffset:15;animation:EWKuhhFN_draw 500ms ease 420ms forwards;}.EWKuhhFN_38{stroke-dasharray:17 19;stroke-dashoffset:18;animation:EWKuhhFN_draw 500ms ease 431ms forwards;}.EWKuhhFN_39{stroke-dasharray:6 8;stroke-dashoffset:7;animation:EWKuhhFN_draw 500ms ease 443ms forwards;}.EWKuhhFN_40{stroke-dasharray:8 10;stroke-dashoffset:9;animation:EWKuhhFN_draw 500ms ease 454ms forwards;}.EWKuhhFN_41{stroke-dasharray:13 15;stroke-dashoffset:14;animation:EWKuhhFN_draw 500ms ease 465ms forwards;}.EWKuhhFN_42{stroke-dasharray:3 5;stroke-dashoffset:4;animation:EWKuhhFN_draw 500ms ease 477ms forwards;}.EWKuhhFN_43{stroke-dasharray:204 206;stroke-dashoffset:205;animation:EWKuhhFN_draw 500ms ease 488ms forwards;}.EWKuhhFN_44{stroke-dasharray:23 25;stroke-dashoffset:24;animation:EWKuhhFN_draw 500ms ease 500ms forwards;}@keyframes EWKuhhFN_draw{100%{stroke-dashoffset:0;}}@keyframes EWKuhhFN_fade{0%{stroke-opacity:1;}92.3076923076923%{stroke-opacity:1;}100%{stroke-opacity:0;}}</style></svg>
