<!--?xml version="1.0" encoding="UTF-8" standalone="no"?-->
<svg xmlns:dc="http://purl.org/dc/elements/1.1/" xmlns:cc="http://creativecommons.org/ns#" xmlns:rdf="http://www.w3.org/1999/02/22-rdf-syntax-ns#" xmlns:svg="http://www.w3.org/2000/svg" xmlns="http://www.w3.org/2000/svg" width="800" height="300" viewBox="0 0 211.66666 79.375002" version="1.1" id="svg8" style="">
  <defs id="defs2"></defs>
  <metadata id="metadata5">
    <rdf:rdf>
      <cc:work rdf:about="">
        <dc:format>image/svg+xml</dc:format>
        <dc:type rdf:resource="http://purl.org/dc/dcmitype/StillImage"></dc:type>
        <dc:title></dc:title>
      </cc:work>
    </rdf:rdf>
  </metadata>
  <g style="stroke:#bbbbbb;stroke-opacity:1" id="layer14">
    <path style="fill: none; stroke: rgb(187, 187, 187); stroke-width: 0.396875px; stroke-linecap: round; stroke-linejoin: round; stroke-miterlimit: 4; stroke-opacity: 1;" d="M 18.851562,6.8508183 C 16.63413,25.549225 17.413951,44.622289 18.142857,63.688988 33.56882,64.463331 46.707381,64.567225 59.956472,65.389881 60.287895,46.034928 62.149442,27.955079 60.948659,7.3232885 46.788797,6.0183321 32.759447,5.8879841 18.851562,6.8508183 Z" id="path1820" class="sQNtMhNR_0"></path>
    <path style="fill: none; stroke: rgb(187, 187, 187); stroke-width: 0.396875px; stroke-linecap: round; stroke-linejoin: round; stroke-opacity: 1; stroke-miterlimit: 4;" d="m 21.355655,14.930059 -0.09449,4.771949 15.213541,-0.519717 0.0945,-4.488467 -15.071801,0.283482" id="path1822" class="sQNtMhNR_1"></path>
    <path style="fill: none; stroke: rgb(187, 187, 187); stroke-width: 0.396875px; stroke-linecap: round; stroke-linejoin: round; stroke-opacity: 1; stroke-miterlimit: 4;" d="m 42.805802,14.977306 -0.14174,4.252232 15.449777,-0.04725 0.04725,-4.110491 H 42.947544" id="path1824" class="sQNtMhNR_2"></path>
    <path style="fill: none; stroke: rgb(187, 187, 187); stroke-width: 0.396875px; stroke-linecap: round; stroke-linejoin: round; stroke-opacity: 1; stroke-miterlimit: 4;" d="m 33.734375,29.104166 9.685639,-0.09449" id="path1826" class="sQNtMhNR_3"></path>
    <path style="fill: none; stroke: rgb(187, 187, 187); stroke-width: 0.396875px; stroke-linecap: butt; stroke-linejoin: round; stroke-opacity: 1; stroke-miterlimit: 4;" d="m 29.576635,33.97061 16.819941,-0.0945" id="path1828" class="sQNtMhNR_4"></path>
    <path style="fill: none; stroke: rgb(187, 187, 187); stroke-width: 0.396875px; stroke-linecap: round; stroke-linejoin: round; stroke-opacity: 1; stroke-miterlimit: 4;" d="m 38.27009,34.065104 0.09449,8.976934" id="path1830" class="sQNtMhNR_5"></path>
    <path style="fill: none; stroke: rgb(187, 187, 187); stroke-width: 0.396875px; stroke-linecap: round; stroke-linejoin: round; stroke-miterlimit: 4; stroke-opacity: 1;" d="m 36.899926,64.633927 0.02362,8.315477 4.039621,0.118118 4e-6,-8.386346" id="path1832" class="sQNtMhNR_6"></path>
    <path style="fill: none; stroke: rgb(187, 187, 187); stroke-width: 0.396875px; stroke-linecap: round; stroke-linejoin: round; stroke-opacity: 1; stroke-miterlimit: 4;" d="m 24.899181,80.981398 0.09449,-7.890253 28.631696,-0.188989 0.425222,7.323291" id="path1834" class="sQNtMhNR_7"></path>
  </g>
  <g style="stroke:#bbbbbb;stroke-opacity:1" id="layer15">
    <path style="fill: none; stroke: rgb(187, 187, 187); stroke-width: 0.396875px; stroke-linecap: round; stroke-linejoin: round; stroke-miterlimit: 4; stroke-opacity: 1;" d="m 96.242186,14.788318 c 0.67106,4.576349 0.688807,9.323127 4.110494,13.181921 0.77637,-0.401897 1.5222,-0.956435 2.17336,-1.984376 0.36934,1.186259 1.06486,1.883241 1.93713,2.315105 0.71166,-0.118597 1.54875,0.07637 2.03162,-0.614212 l 3.68527,1.41741 c 1.29872,13.454634 -0.46504,11.596902 -0.75595,17.103423 5.7031,-4.678789 6.61495,-11.299979 7.79576,-17.812128" id="path1837" class="sQNtMhNR_8"></path>
    <path style="fill: none; stroke: rgb(187, 187, 187); stroke-width: 0.396875px; stroke-linecap: round; stroke-linejoin: round; stroke-miterlimit: 4; stroke-opacity: 1;" d="m 96.242186,14.788318 c -2.345434,3.229327 -5.775909,18.660307 -1.842634,28.111979 -0.854827,0.10905 -6.728727,-6.234689 -6.236606,-19.324033" id="path1839" class="sQNtMhNR_9"></path>
  </g>
  <path style="fill: none; stroke: rgb(187, 187, 187); stroke-width: 0.396875px; stroke-linecap: round; stroke-linejoin: round; stroke-miterlimit: 4; stroke-opacity: 1;" d="m 93.029388,34.254093 c 1.676945,1.65917 2.897739,3.181301 7.039812,3.827007 2.63043,-0.222819 6.01099,-1.95505 10.39434,-4.204985" id="path1841" class="sQNtMhNR_10"></path>
  <path style="fill: none; stroke: rgb(187, 187, 187); stroke-width: 0.396875px; stroke-linecap: round; stroke-linejoin: round; stroke-miterlimit: 4; stroke-opacity: 1;" d="m 114.99926,38.648065 c -1.47484,6.402346 2.06596,7.333074 -12.28423,27.78125 -3.163514,1.468422 -7.086672,-1.348041 -12.284226,-16.867187 1.138616,-0.109453 1.752123,-2.424362 2.267855,-5.149927 3.264645,0.913517 7.841061,4.772177 7.890261,10.630582 0.29162,-4.097598 3.98092,-8.808923 6.80356,-12.614957" id="path1843" class="sQNtMhNR_11"></path>
  <path style="fill: none; stroke: rgb(187, 187, 187); stroke-width: 0.396875px; stroke-linecap: round; stroke-linejoin: round; stroke-miterlimit: 4; stroke-opacity: 1;" d="M 92.698659,44.412201 C 91.863986,42.48804 90.475928,40.978919 88.933934,39.585249 l -2.605878,-0.200451 0.233862,3.674954 c -7.486507,1.250441 -3.971464,7.261953 3.868886,6.502376" id="path1845" class="sQNtMhNR_12"></path>
  <path style="fill: none; stroke: rgb(187, 187, 187); stroke-width: 0.396875px; stroke-linecap: round; stroke-linejoin: round; stroke-miterlimit: 4; stroke-opacity: 1;" d="m 85.158754,49.106724 c -5.603303,1.848615 -6.704932,3.697229 -9.187392,5.545844 -1.075476,-2.231341 -2.547256,-4.519298 -5.479026,-7.015824 -1.685573,0.315555 -3.454859,1.175246 -4.977895,0.434311 2.201376,8.358465 7.877302,16.843864 9.187392,16.002765 6.046309,-2.118154 10.536694,-6.656635 15.802311,-9.989199" id="path1847" class="sQNtMhNR_13"></path>
  <path style="fill: none; stroke: rgb(187, 187, 187); stroke-width: 0.396875px; stroke-linecap: round; stroke-linejoin: round; stroke-miterlimit: 4; stroke-opacity: 1;" d="m 65.514441,48.071055 c -1.319526,0.174551 -1.394036,-2.72194 -1.403164,-5.779704 0.329781,-0.813646 0.972338,-1.613075 3.240643,-2.338607 0.68754,0.806554 1.069941,1.643622 0.868627,2.539061 4.677331,0.692353 3.621726,2.880255 2.271789,5.144939" id="path1849" class="sQNtMhNR_14"></path>
  <path style="fill: none; stroke: rgb(187, 187, 187); stroke-width: 0.396875px; stroke-linecap: round; stroke-linejoin: round; stroke-opacity: 1; stroke-miterlimit: 4;" d="M 88.933934,54.986655 82.15197,81.613382" id="path1851" class="sQNtMhNR_15"></path>
  <path style="fill: none; stroke: rgb(187, 187, 187); stroke-width: 0.396875px; stroke-linecap: round; stroke-linejoin: round; stroke-miterlimit: 4; stroke-opacity: 1;" d="m 114.52499,44.529736 c 2.26214,14.855466 4.59691,29.065039 7.65059,37.852046" id="path1853" class="sQNtMhNR_16"></path>
  <path style="fill: none; stroke: rgb(187, 187, 187); stroke-width: 0.396875px; stroke-linecap: round; stroke-linejoin: round; stroke-opacity: 1; stroke-miterlimit: 4;" d="M 70.492336,47.636744 83.120822,47.436291" id="path1855" class="sQNtMhNR_17"></path>
  <path style="fill: none; stroke: rgb(187, 187, 187); stroke-width: 0.396875px; stroke-linecap: round; stroke-linejoin: round; stroke-opacity: 1; stroke-miterlimit: 4;" d="m 67.35192,39.952744 -0.100227,-4.677217 18.809094,0.434314 0.267269,3.674957" id="path1857" class="sQNtMhNR_18"></path>
  <path style="fill:none;stroke:#bbbbbb;stroke-width:0.26458332px;stroke-linecap:round;stroke-linejoin:round;stroke-opacity:1" d="m 69.089171,37.280048 5.746295,4.476766" id="path1859" class="sQNtMhNR_19"></path>
  <path style="fill: none; stroke: rgb(187, 187, 187); stroke-width: 0.264583px; stroke-linecap: round; stroke-linejoin: round; stroke-opacity: 1; stroke-miterlimit: 4;" d="m 76.873398,42.424987 7.283093,-3.975634" id="path1861" class="sQNtMhNR_20"></path>
  <path style="fill: none; stroke: rgb(187, 187, 187); stroke-width: 0.396875px; stroke-linecap: round; stroke-linejoin: round; stroke-miterlimit: 4; stroke-opacity: 1;" d="m 84.022858,58.661611 c -1.002261,4.287449 -0.463229,7.358086 -3.006784,12.862346 0.80604,-0.130785 1.267433,-0.675145 1.770661,-1.169305 -0.01142,1.217362 0.496812,2.274833 1.302941,3.240643" id="path1863" class="sQNtMhNR_21"></path>
  <path style="fill: none; stroke: rgb(187, 187, 187); stroke-width: 0.396875px; stroke-linecap: round; stroke-linejoin: round; stroke-miterlimit: 4; stroke-opacity: 1;" d="M 84.824664,35.643023 C 86.426626,27.694695 83.71823,18.066059 90.036421,11.956261 94.691094,8.4329931 100.32861,8.2801274 103.36649,8.0474446 c 10.43471,0.3431334 13.07356,5.1663514 15.26777,7.3165034 5.11137,7.932712 1.82634,16.080716 2.73951,24.121074 -0.4687,23.227288 2.37988,23.184571 3.37428,25.991962 -0.96516,0.145235 -1.73209,-0.06174 -2.50565,-1.035669 0.38864,1.801467 0.70468,2.586538 1.03329,3.547749 -0.83654,-0.07464 -1.4136,-0.5145 -2.00214,-1.209142 -1.53682,4.255416 -1.35012,3.036101 -1.93771,4.276313" id="path1865" class="sQNtMhNR_22"></path>
  <g style="stroke:#bbbbbb;stroke-opacity:1" id="layer16">
    <path style="fill: none; stroke: rgb(187, 187, 187); stroke-width: 0.396875px; stroke-linecap: round; stroke-linejoin: round; stroke-miterlimit: 4; stroke-opacity: 1;" d="m 153.64732,6.6145831 c -10.95411,14.8211899 -2.11699,20.4609219 2.12612,26.4583329 0.69301,-7.980083 -1.88605,-17.820754 4.6302,-22.489583 0.44519,6.625595 1.71132,6.191054 2.74033,7.795759 l 2.07887,-1.559152 c 0.26713,1.050034 0.82057,2.052351 1.84263,2.976563 l 1.6064,-1.181176 c 0.67534,0.885469 1.79966,1.681139 3.73252,2.315104 0.98942,5.353219 -0.29512,8.594903 -0.94494,12.425968 1.78859,-2.149885 13.91474,-1.870158 6.28385,-24.0014884 -4.42666,-7.6445927 -19.19492,-7.9576864 -24.09598,-2.7403275 z" id="path1868" class="sQNtMhNR_23"></path>
  </g>
  <path style="fill: none; stroke: rgb(187, 187, 187); stroke-width: 0.396875px; stroke-linecap: round; stroke-linejoin: round; stroke-miterlimit: 4; stroke-opacity: 1;" d="m 156.10416,27.686756 c 2.61406,1.859669 5.28084,3.473298 8.26823,3.590775 1.69715,0.09001 5.39278,-1.970816 8.22099,-3.685271" id="path1870" class="sQNtMhNR_24"></path>
  <path style="fill: none; stroke: rgb(187, 187, 187); stroke-width: 0.396875px; stroke-linecap: round; stroke-linejoin: round; stroke-miterlimit: 4; stroke-opacity: 1;" d="m 177.88504,29.080542 c 1.14423,2.343071 2.51467,1.612005 0.85045,9.662017 -0.39132,4.851076 -6.43513,16.565625 -11.67002,20.505208 -2.48353,-0.499336 -3.85034,-4.247331 -4.96093,-8.740698 1.28873,-0.03414 2.64736,-2.273978 2.78757,-6.37835 2.64461,0.543953 3.11351,2.17576 4.39397,3.401787 0.59284,-3.883304 1.73986,-7.549755 3.77977,-10.866816" id="path1872" class="sQNtMhNR_25"></path>
  <path style="fill: none; stroke: rgb(187, 187, 187); stroke-width: 0.396875px; stroke-linecap: round; stroke-linejoin: round; stroke-miterlimit: 4; stroke-opacity: 1;" d="m 177.8206,42.507499 c 2.88699,14.280799 4.77071,34.28858 9.60834,37.434465" id="path1874" class="sQNtMhNR_26"></path>
  <path style="fill: none; stroke: rgb(187, 187, 187); stroke-width: 0.396875px; stroke-linecap: round; stroke-linejoin: round; stroke-miterlimit: 4; stroke-opacity: 1;" d="m 164.89211,44.128719 c -0.83568,-1.680878 -1.48132,-4.083955 -2.72633,-4.209384 -0.0815,1.129904 -0.0162,2.431052 -0.60135,2.973375 -7.4459,1.481826 -3.18192,6.717551 0.54011,7.614359" id="path1876" class="sQNtMhNR_27"></path>
  <path style="fill: none; stroke: rgb(187, 187, 187); stroke-width: 0.396875px; stroke-linecap: round; stroke-linejoin: round; stroke-miterlimit: 4; stroke-opacity: 1;" d="m 156.90637,48.186105 c -2.06855,2.712959 -0.39746,5.99456 -11.04981,12.424962 -1.24353,0.134681 -8.7821,1.500387 -5.97437,-16.749506 0.22984,6.248292 2.79498,6.731329 5.84652,6.013564 0.12046,1.717709 0.58833,2.349414 0.9564,3.200518 1.83419,-1.390066 2.08874,-2.519491 4.02919,-4.798404" id="path1882" class="sQNtMhNR_28"></path>
  <path style="fill: none; stroke: rgb(187, 187, 187); stroke-width: 0.396875px; stroke-linecap: round; stroke-linejoin: round; stroke-miterlimit: 4; stroke-opacity: 1;" d="m 139.88219,43.861561 c 0.13986,-2.076212 0.67853,-3.528201 2.26048,-3.347239 l 0.30711,2.173365 c 7.61965,-0.03652 5.94768,6.844233 3.27893,7.187438" id="path1884" class="sQNtMhNR_29"></path>
  <path style="fill: none; stroke: rgb(187, 187, 187); stroke-width: 0.396875px; stroke-linecap: round; stroke-linejoin: round; stroke-opacity: 1; stroke-miterlimit: 4;" d="m 147.71782,48.239211 10.41797,-0.07087" id="path1886" class="sQNtMhNR_30"></path>
  <path style="fill: none; stroke: rgb(187, 187, 187); stroke-width: 0.396875px; stroke-linecap: round; stroke-linejoin: round; stroke-opacity: 1; stroke-miterlimit: 4;" d="m 162.16578,39.919335 -0.41559,-4.838419 -18.99331,0.54334 -0.61421,4.890066" id="path1888" class="sQNtMhNR_31"></path>
  <path style="fill:none;stroke:#bbbbbb;stroke-width:0.26458332px;stroke-linecap:butt;stroke-linejoin:miter;stroke-opacity:1" d="m 144.83575,38.199218 6.66183,3.354539" id="path1890" class="sQNtMhNR_32"></path>
  <path style="fill:none;stroke:#bbbbbb;stroke-width:0.26458332px;stroke-linecap:butt;stroke-linejoin:miter;stroke-opacity:1" d="m 154.87574,41.577381 5.59878,-3.543527" id="path1892" class="sQNtMhNR_33"></path>
  <path style="fill: none; stroke: rgb(187, 187, 187); stroke-width: 0.396875px; stroke-linecap: round; stroke-linejoin: round; stroke-miterlimit: 4; stroke-opacity: 1;" d="m 160.89974,30.568823 c -1.54886,0.340754 -4.29402,1.27574 -5.62146,4.539319" id="path1894" class="sQNtMhNR_34"></path>
  <path style="fill: none; stroke: rgb(187, 187, 187); stroke-width: 0.396875px; stroke-linecap: round; stroke-linejoin: round; stroke-opacity: 1; stroke-miterlimit: 4;" d="m 153.45833,54.712052 -4.7247,27.16704" id="path1896" class="sQNtMhNR_35"></path>
<style data-made-with="vivus-instant">.sQNtMhNR_0{stroke-dasharray:199 201;stroke-dashoffset:200;animation:sQNtMhNR_draw 500ms ease 0ms forwards;}.sQNtMhNR_1{stroke-dasharray:40 42;stroke-dashoffset:41;animation:sQNtMhNR_draw 500ms ease 14ms forwards;}.sQNtMhNR_2{stroke-dasharray:40 42;stroke-dashoffset:41;animation:sQNtMhNR_draw 500ms ease 28ms forwards;}.sQNtMhNR_3{stroke-dasharray:10 12;stroke-dashoffset:11;animation:sQNtMhNR_draw 500ms ease 42ms forwards;}.sQNtMhNR_4{stroke-dasharray:17 19;stroke-dashoffset:18;animation:sQNtMhNR_draw 500ms ease 57ms forwards;}.sQNtMhNR_5{stroke-dasharray:9 11;stroke-dashoffset:10;animation:sQNtMhNR_draw 500ms ease 71ms forwards;}.sQNtMhNR_6{stroke-dasharray:21 23;stroke-dashoffset:22;animation:sQNtMhNR_draw 500ms ease 85ms forwards;}.sQNtMhNR_7{stroke-dasharray:44 46;stroke-dashoffset:45;animation:sQNtMhNR_draw 500ms ease 100ms forwards;}.sQNtMhNR_8{stroke-dasharray:64 66;stroke-dashoffset:65;animation:sQNtMhNR_draw 500ms ease 114ms forwards;}.sQNtMhNR_9{stroke-dasharray:50 52;stroke-dashoffset:51;animation:sQNtMhNR_draw 500ms ease 128ms forwards;}.sQNtMhNR_10{stroke-dasharray:20 22;stroke-dashoffset:21;animation:sQNtMhNR_draw 500ms ease 142ms forwards;}.sQNtMhNR_11{stroke-dasharray:89 91;stroke-dashoffset:90;animation:sQNtMhNR_draw 500ms ease 157ms forwards;}.sQNtMhNR_12{stroke-dasharray:28 30;stroke-dashoffset:29;animation:sQNtMhNR_draw 500ms ease 171ms forwards;}.sQNtMhNR_13{stroke-dasharray:63 65;stroke-dashoffset:64;animation:sQNtMhNR_draw 500ms ease 185ms forwards;}.sQNtMhNR_14{stroke-dasharray:21 23;stroke-dashoffset:22;animation:sQNtMhNR_draw 500ms ease 200ms forwards;}.sQNtMhNR_15{stroke-dasharray:28 30;stroke-dashoffset:29;animation:sQNtMhNR_draw 500ms ease 214ms forwards;}.sQNtMhNR_16{stroke-dasharray:39 41;stroke-dashoffset:40;animation:sQNtMhNR_draw 500ms ease 228ms forwards;}.sQNtMhNR_17{stroke-dasharray:13 15;stroke-dashoffset:14;animation:sQNtMhNR_draw 500ms ease 242ms forwards;}.sQNtMhNR_18{stroke-dasharray:28 30;stroke-dashoffset:29;animation:sQNtMhNR_draw 500ms ease 257ms forwards;}.sQNtMhNR_19{stroke-dasharray:8 10;stroke-dashoffset:9;animation:sQNtMhNR_draw 500ms ease 271ms forwards;}.sQNtMhNR_20{stroke-dasharray:9 11;stroke-dashoffset:10;animation:sQNtMhNR_draw 500ms ease 285ms forwards;}.sQNtMhNR_21{stroke-dasharray:20 22;stroke-dashoffset:21;animation:sQNtMhNR_draw 500ms ease 300ms forwards;}.sQNtMhNR_22{stroke-dasharray:122 124;stroke-dashoffset:123;animation:sQNtMhNR_draw 500ms ease 314ms forwards;}.sQNtMhNR_23{stroke-dasharray:143 145;stroke-dashoffset:144;animation:sQNtMhNR_draw 500ms ease 328ms forwards;}.sQNtMhNR_24{stroke-dasharray:19 21;stroke-dashoffset:20;animation:sQNtMhNR_draw 500ms ease 342ms forwards;}.sQNtMhNR_25{stroke-dasharray:70 72;stroke-dashoffset:71;animation:sQNtMhNR_draw 500ms ease 357ms forwards;}.sQNtMhNR_26{stroke-dasharray:40 42;stroke-dashoffset:41;animation:sQNtMhNR_draw 500ms ease 371ms forwards;}.sQNtMhNR_27{stroke-dasharray:21 23;stroke-dashoffset:22;animation:sQNtMhNR_draw 500ms ease 385ms forwards;}.sQNtMhNR_28{stroke-dasharray:58 60;stroke-dashoffset:59;animation:sQNtMhNR_draw 500ms ease 400ms forwards;}.sQNtMhNR_29{stroke-dasharray:19 21;stroke-dashoffset:20;animation:sQNtMhNR_draw 500ms ease 414ms forwards;}.sQNtMhNR_30{stroke-dasharray:11 13;stroke-dashoffset:12;animation:sQNtMhNR_draw 500ms ease 428ms forwards;}.sQNtMhNR_31{stroke-dasharray:29 31;stroke-dashoffset:30;animation:sQNtMhNR_draw 500ms ease 442ms forwards;}.sQNtMhNR_32{stroke-dasharray:8 10;stroke-dashoffset:9;animation:sQNtMhNR_draw 500ms ease 457ms forwards;}.sQNtMhNR_33{stroke-dasharray:7 9;stroke-dashoffset:8;animation:sQNtMhNR_draw 500ms ease 471ms forwards;}.sQNtMhNR_34{stroke-dasharray:8 10;stroke-dashoffset:9;animation:sQNtMhNR_draw 500ms ease 485ms forwards;}.sQNtMhNR_35{stroke-dasharray:28 30;stroke-dashoffset:29;animation:sQNtMhNR_draw 500ms ease 500ms forwards;}@keyframes sQNtMhNR_draw{100%{stroke-dashoffset:0;}}@keyframes sQNtMhNR_fade{0%{stroke-opacity:1;}92.3076923076923%{stroke-opacity:1;}100%{stroke-opacity:0;}}</style></svg>
