<!--?xml version="1.0" encoding="UTF-8" standalone="no"?-->
<svg xmlns:dc="http://purl.org/dc/elements/1.1/" xmlns:cc="http://creativecommons.org/ns#" xmlns:rdf="http://www.w3.org/1999/02/22-rdf-syntax-ns#" xmlns:svg="http://www.w3.org/2000/svg" xmlns="http://www.w3.org/2000/svg" width="800" height="300" viewBox="0 0 211.66666 79.375002" version="1.1" id="svg8" style="">
  <defs id="defs2"></defs>
  <metadata id="metadata5">
    <rdf:rdf>
      <cc:work rdf:about="">
        <dc:format>image/svg+xml</dc:format>
        <dc:type rdf:resource="http://purl.org/dc/dcmitype/StillImage"></dc:type>
        <dc:title></dc:title>
      </cc:work>
    </rdf:rdf>
  </metadata>
  <g id="layer18" style="display:inline;fill-opacity:1;fill:none;stroke:#bbbbbb;stroke-opacity:1">
    <path style="fill: none; stroke: rgb(187, 187, 187); stroke-width: 0.396875px; stroke-linecap: round; stroke-linejoin: round; stroke-miterlimit: 4; stroke-opacity: 1; fill-opacity: 1;" d="m 98.154732,34.005998 c 1.31346,7.827312 3.437628,12.682022 5.879928,16.370258 -3.87103,-17.901534 -1.61686,-26.904198 1.06908,-35.279578 0.89031,3.321518 1.52584,7.916997 2.87315,8.953529 1.41738,-0.947195 1.54243,-1.635924 1.73725,-2.338608 0.89526,2.093747 2.50779,3.162813 4.27631,4.009043 l 1.46998,-1.670435 c 1.14978,1.308587 2.37182,2.472649 4.14268,2.53906 -0.43983,10.246505 -1.13901,18.288493 -2.0828,24.251351 2.81031,-6.0009 4.35863,-15.15679 6.22548,-23.516359" id="path1926" class="ayTPNMKP_0"></path>
    <path style="fill: none; stroke: rgb(187, 187, 187); stroke-width: 0.396875px; stroke-linecap: round; stroke-linejoin: miter; stroke-miterlimit: 4; stroke-opacity: 1; fill-opacity: 1;" d="m 102.24256,31.89174 c 3.16609,4.232068 5.94095,4.030201 8.7407,4.110492 3.35645,0.308158 5.63626,-1.293037 7.89025,-2.409597" id="path1928" class="ayTPNMKP_1"></path>
    <path style="fill: none; stroke: rgb(187, 187, 187); stroke-width: 0.396875px; stroke-linecap: round; stroke-linejoin: round; stroke-miterlimit: 4; stroke-opacity: 1; fill-opacity: 1;" d="m 106.77417,35.643023 c 0.54406,1.386681 -0.39052,1.039778 2.47225,5.144939 0.93347,1.319768 2.30397,1.645949 3.57473,0.06682 0.62497,-0.486083 1.56894,-5.155088 1.60362,-5.178346" id="path1930" class="ayTPNMKP_2"></path>
    <path style="fill: none; stroke: rgb(187, 187, 187); stroke-width: 0.396875px; stroke-linecap: round; stroke-linejoin: round; stroke-miterlimit: 4; stroke-opacity: 1; fill-opacity: 1;" d="m 114.29113,36.945961 c 1.66851,0.572177 3.33688,1.144459 4.30972,2.238383" id="path1932" class="ayTPNMKP_3"></path>
    <path style="fill: none; stroke: rgb(187, 187, 187); stroke-width: 0.396875px; stroke-linecap: round; stroke-linejoin: round; stroke-miterlimit: 4; stroke-opacity: 1; fill-opacity: 1;" d="m 121.07309,40.721145 c 2.23838,2.446428 4.47677,5.35637 6.71515,7.249686 6.29566,-2.071536 12.85304,-3.90983 19.10977,-4.209497 -0.0384,2.542037 0.64797,3.737942 1.20272,5.178348 -7.27613,2.329787 -13.98711,3.340879 -20.98066,5.011304 -3.19539,-0.297984 -5.04514,-2.698499 -6.71515,-4.977895" id="path1936" class="ayTPNMKP_4"></path>
    <path style="fill: none; stroke: rgb(187, 187, 187); stroke-width: 0.396875px; stroke-linecap: round; stroke-linejoin: round; stroke-miterlimit: 4; stroke-opacity: 1; fill-opacity: 1;" d="m 146.89801,43.761334 c 1.20039,-0.592646 2.48605,-1.347314 3.08101,-0.789648 l 0.69417,0.923284" id="path1938" class="ayTPNMKP_5"></path>
    <path style="fill: none; stroke: rgb(187, 187, 187); stroke-width: 0.396875px; stroke-linecap: round; stroke-linejoin: round; stroke-miterlimit: 4; stroke-opacity: 1; fill-opacity: 1;" d="m 148.10073,48.939682 c 1.8554,-0.60577 5.01032,-1.003616 5.45065,-1.835798 -0.0432,0.11176 0.24032,-1.571933 -0.9388,-3.262877 -0.70135,-0.640669 -1.29456,0.01643 -1.93939,0.05396" id="path1940" class="ayTPNMKP_6"></path>
    <path style="fill: none; stroke: rgb(187, 187, 187); stroke-width: 0.396875px; stroke-linecap: round; stroke-linejoin: round; stroke-miterlimit: 4; stroke-opacity: 1; fill-opacity: 1;" d="m 150.67319,43.89497 c -3.19311,0.356958 -1.89938,5.10886 0.94251,4.06076" id="path1942" class="ayTPNMKP_7"></path>
    <path style="fill: none; stroke: rgb(187, 187, 187); stroke-width: 0.396875px; stroke-linecap: round; stroke-linejoin: round; stroke-miterlimit: 4; stroke-opacity: 1; fill-opacity: 1;" d="m 151.29126,48.154579 0.70158,2.23838 1.75395,-0.651468 -0.73499,-2.204974" id="path1944" class="ayTPNMKP_8"></path>
    <path style="fill: none; stroke: rgb(187, 187, 187); stroke-width: 0.396875px; stroke-linecap: round; stroke-linejoin: round; stroke-miterlimit: 4; stroke-opacity: 1; fill-opacity: 1;" d="m 149.85468,42.625438 -3.842,-14.850163 1.73726,-0.334086 4.07585,16.086285" id="path1946" class="ayTPNMKP_9"></path>
    <path style="fill: none; fill-opacity: 1; stroke: rgb(187, 187, 187); stroke-width: 0.396875px; stroke-linecap: round; stroke-linejoin: round; stroke-miterlimit: 4; stroke-opacity: 1;" id="path1948" d="M135.088039,18.32897A10.156241,9.4128981 0,1,1 155.400521,18.32897A10.156241,9.4128981 0,1,1 135.088039,18.32897" class="ayTPNMKP_10"></path>
    <path style="fill: none; stroke: rgb(187, 187, 187); stroke-width: 0.396875px; stroke-linecap: round; stroke-linejoin: round; stroke-miterlimit: 4; stroke-opacity: 1; fill-opacity: 1;" d="m 139.00021,13.693513 c 13.02939,8.970234 12.99599,9.003642 12.99599,9.003642" id="path1956" class="ayTPNMKP_11"></path>
    <path style="fill: none; stroke: rgb(187, 187, 187); stroke-width: 0.396875px; stroke-linecap: round; stroke-linejoin: round; stroke-miterlimit: 4; stroke-opacity: 1; fill-opacity: 1;" d="m 149.96043,12.327115 -9.55488,11.709746" id="path1958" class="ayTPNMKP_12"></path>
    <path style="fill: none; stroke: rgb(187, 187, 187); stroke-width: 0.396875px; stroke-linecap: round; stroke-linejoin: round; stroke-miterlimit: 4; stroke-opacity: 1; fill-opacity: 1;" d="m 123.17299,52.53869 c 2.8287,12.783644 4.67913,20.694922 6.66183,29.245906" id="path1960" class="ayTPNMKP_13"></path>
    <path style="fill: none; stroke: rgb(187, 187, 187); stroke-width: 0.396875px; stroke-linecap: round; stroke-linejoin: round; stroke-miterlimit: 4; stroke-opacity: 1; fill-opacity: 1;" d="m 106.94122,36.845737 c -1.79742,-0.183135 -3.60785,2.040862 -4.34313,3.491206" id="path1962" class="ayTPNMKP_14"></path>
    <path style="fill: none; stroke: rgb(187, 187, 187); stroke-width: 0.396875px; stroke-linecap: round; stroke-linejoin: round; stroke-miterlimit: 4; stroke-opacity: 1; fill-opacity: 1;" d="m 100.25948,42.692256 c -3.091063,4.156674 -5.856096,9.30509 -9.855565,10.390105 -5.022368,-1.592524 -9.585193,-3.460775 -15.067318,-4.777445 -0.259242,1.738892 -0.977268,3.171928 -2.037931,4.376539 5.656449,3.479589 13.227979,6.712004 19.795839,7.612841 2.271898,-1.057045 6.57279,-5.634811 9.150625,-9.59067" id="path1964" class="ayTPNMKP_15"></path>
    <path style="fill: none; stroke: rgb(187, 187, 187); stroke-width: 0.396875px; stroke-linecap: round; stroke-linejoin: round; stroke-miterlimit: 4; stroke-opacity: 1; fill-opacity: 1;" d="m 75.336597,48.304915 c -0.855268,-0.420926 -1.513631,-1.62947 -2.605876,-1.102484 -0.300916,0.03262 -0.423519,0.659611 -0.601358,1.102484 l -1.603618,-0.734989 c -1.138591,-0.320999 -1.795559,1.998069 -1.837478,2.622582 -0.113262,1.428814 2.453497,1.831132 4.610399,2.488946" id="path1966" class="ayTPNMKP_16"></path>
    <path style="fill: none; stroke: rgb(187, 187, 187); stroke-width: 0.396875px; stroke-linecap: round; stroke-linejoin: round; stroke-miterlimit: 4; stroke-opacity: 1; fill-opacity: 1;" d="m 72.129363,48.304915 c 2.302629,1.347778 0.388083,4.813554 -1.219416,3.658254" id="path1968" class="ayTPNMKP_17"></path>
    <path style="fill: none; stroke: rgb(187, 187, 187); stroke-width: 0.396875px; stroke-linecap: round; stroke-linejoin: round; stroke-miterlimit: 4; stroke-opacity: 1; fill-opacity: 1;" d="m 69.456667,51.645785 -0.634765,1.870887 1.411517,0.609709 0.676528,-2.163212" id="path1970" class="ayTPNMKP_18"></path>
    <path style="fill: none; stroke: rgb(187, 187, 187); stroke-width: 0.396875px; stroke-linecap: round; stroke-linejoin: round; stroke-opacity: 1; stroke-miterlimit: 4; fill-opacity: 1;" d="m 70.525745,47.569926 6.063678,-18.725573 1.169305,0.317384 -5.629365,19.143178" id="path1972" class="ayTPNMKP_19"></path>
    <path style="display: inline; fill: none; fill-opacity: 1; stroke: rgb(187, 187, 187); stroke-width: 0.396875px; stroke-linecap: round; stroke-linejoin: round; stroke-miterlimit: 4; stroke-opacity: 1;" id="path1948-4" d="M69.454988,19.796503A10.156241,9.4128981 0,1,1 89.76746999999999,19.796503A10.156241,9.4128981 0,1,1 69.454988,19.796503" class="ayTPNMKP_20"></path>
    <path style="fill: none; stroke: rgb(187, 187, 187); stroke-width: 0.396875px; stroke-linecap: round; stroke-linejoin: round; stroke-miterlimit: 4; stroke-opacity: 1; fill-opacity: 1;" d="m 82.051744,13.960783 c 10.138217,3.577189 2.572434,15.071433 -4.777441,12.127355 -7.782904,-3.437619 -4.445845,-14.949969 4.777441,-12.127355 z" id="path1993" class="ayTPNMKP_21"></path>
    <path style="fill: none; stroke: rgb(187, 187, 187); stroke-width: 0.396875px; stroke-linecap: round; stroke-linejoin: round; stroke-miterlimit: 4; stroke-opacity: 1; fill-opacity: 1;" d="M 100.68341,52.963913 C 98.420665,67.048784 88.143763,78.114618 91.564732,81.784597" id="path1995" class="ayTPNMKP_22"></path>
    <path style="fill: none; stroke: rgb(187, 187, 187); stroke-width: 0.396875px; stroke-linecap: round; stroke-linejoin: round; stroke-miterlimit: 4; stroke-opacity: 1; fill-opacity: 1;" d="m 127.7087,72.807662 c 0.011,-1.149677 0.0256,-2.299354 0.8977,-3.449031 0.74333,1.396286 2.19383,1.441095 2.97656,1.606399 -2.15043,-4.127536 -3.30061,-9.732104 -3.43519,-17.261376" id="path1997" class="ayTPNMKP_23"></path>
    <path style="fill: none; stroke: rgb(187, 187, 187); stroke-width: 0.396875px; stroke-linecap: round; stroke-linejoin: round; stroke-miterlimit: 4; stroke-opacity: 1; fill-opacity: 1;" d="m 127.78824,47.970831 c -0.84635,-11.292138 2.40488,-15.409602 -2.93996,-33.074605 -0.23971,-1.968689 -4.7853,-6.8111124 -9.25421,-8.2519464 -6.09674,-2.5947228 -10.53209,-0.4219511 -14.5996,2.80633 C 94.800273,18.159538 93.895989,29.68942 94.64682,34.540536 l 1.403165,13.797791" id="path1999" class="ayTPNMKP_24"></path>
    <path style="fill: none; stroke: rgb(187, 187, 187); stroke-width: 0.396875px; stroke-linecap: round; stroke-linejoin: round; stroke-miterlimit: 4; stroke-opacity: 1; fill-opacity: 1;" d="m 96.549293,57.617746 c -0.976438,3.456907 -2.939079,7.688688 -2.929315,10.370722 0.02937,1.536707 0.401162,1.618102 0.661458,2.173361" id="path2001" class="ayTPNMKP_25"></path>
  </g>
<style data-made-with="vivus-instant">.ayTPNMKP_0{stroke-dasharray:128 130;stroke-dashoffset:129;animation:ayTPNMKP_draw 500ms ease 0ms forwards;}.ayTPNMKP_1{stroke-dasharray:19 21;stroke-dashoffset:20;animation:ayTPNMKP_draw 500ms ease 20ms forwards;}.ayTPNMKP_2{stroke-dasharray:16 18;stroke-dashoffset:17;animation:ayTPNMKP_draw 500ms ease 40ms forwards;}.ayTPNMKP_3{stroke-dasharray:5 7;stroke-dashoffset:6;animation:ayTPNMKP_draw 500ms ease 60ms forwards;}.ayTPNMKP_4{stroke-dasharray:66 68;stroke-dashoffset:67;animation:ayTPNMKP_draw 500ms ease 80ms forwards;}.ayTPNMKP_5{stroke-dasharray:5 7;stroke-dashoffset:6;animation:ayTPNMKP_draw 500ms ease 100ms forwards;}.ayTPNMKP_6{stroke-dasharray:12 14;stroke-dashoffset:13;animation:ayTPNMKP_draw 500ms ease 120ms forwards;}.ayTPNMKP_7{stroke-dasharray:8 10;stroke-dashoffset:9;animation:ayTPNMKP_draw 500ms ease 140ms forwards;}.ayTPNMKP_8{stroke-dasharray:7 9;stroke-dashoffset:8;animation:ayTPNMKP_draw 500ms ease 160ms forwards;}.ayTPNMKP_9{stroke-dasharray:34 36;stroke-dashoffset:35;animation:ayTPNMKP_draw 500ms ease 180ms forwards;}.ayTPNMKP_10{stroke-dasharray:62 64;stroke-dashoffset:63;animation:ayTPNMKP_draw 500ms ease 200ms forwards;}.ayTPNMKP_11{stroke-dasharray:16 18;stroke-dashoffset:17;animation:ayTPNMKP_draw 500ms ease 220ms forwards;}.ayTPNMKP_12{stroke-dasharray:16 18;stroke-dashoffset:17;animation:ayTPNMKP_draw 500ms ease 240ms forwards;}.ayTPNMKP_13{stroke-dasharray:30 32;stroke-dashoffset:31;animation:ayTPNMKP_draw 500ms ease 260ms forwards;}.ayTPNMKP_14{stroke-dasharray:6 8;stroke-dashoffset:7;animation:ayTPNMKP_draw 500ms ease 280ms forwards;}.ayTPNMKP_15{stroke-dasharray:70 72;stroke-dashoffset:71;animation:ayTPNMKP_draw 500ms ease 300ms forwards;}.ayTPNMKP_16{stroke-dasharray:16 18;stroke-dashoffset:17;animation:ayTPNMKP_draw 500ms ease 320ms forwards;}.ayTPNMKP_17{stroke-dasharray:6 8;stroke-dashoffset:7;animation:ayTPNMKP_draw 500ms ease 340ms forwards;}.ayTPNMKP_18{stroke-dasharray:6 8;stroke-dashoffset:7;animation:ayTPNMKP_draw 500ms ease 360ms forwards;}.ayTPNMKP_19{stroke-dasharray:41 43;stroke-dashoffset:42;animation:ayTPNMKP_draw 500ms ease 380ms forwards;}.ayTPNMKP_20{stroke-dasharray:62 64;stroke-dashoffset:63;animation:ayTPNMKP_draw 500ms ease 400ms forwards;}.ayTPNMKP_21{stroke-dasharray:43 45;stroke-dashoffset:44;animation:ayTPNMKP_draw 500ms ease 420ms forwards;}.ayTPNMKP_22{stroke-dasharray:31 33;stroke-dashoffset:32;animation:ayTPNMKP_draw 500ms ease 440ms forwards;}.ayTPNMKP_23{stroke-dasharray:25 27;stroke-dashoffset:26;animation:ayTPNMKP_draw 500ms ease 460ms forwards;}.ayTPNMKP_24{stroke-dasharray:103 105;stroke-dashoffset:104;animation:ayTPNMKP_draw 500ms ease 480ms forwards;}.ayTPNMKP_25{stroke-dasharray:14 16;stroke-dashoffset:15;animation:ayTPNMKP_draw 500ms ease 500ms forwards;}@keyframes ayTPNMKP_draw{100%{stroke-dashoffset:0;}}@keyframes ayTPNMKP_fade{0%{stroke-opacity:1;}92.3076923076923%{stroke-opacity:1;}100%{stroke-opacity:0;}}</style></svg>
